<mxfile host="app.diagrams.net" modified="2024-03-22T21:49:55.629Z" agent="Mozilla/5.0 (Windows NT 10.0; Win64; x64) AppleWebKit/537.36 (KHTML, like Gecko) Chrome/123.0.0.0 Safari/537.36" version="24.0.7" etag="WXKMxBF5C3WJznjutEvm" type="github">
  <diagram name="Page-1" id="24FLEFBFQaqDWHFDwXjz">
    <mxGraphModel>
      <root>
        <mxCell id="0" />
        <mxCell id="1" parent="0" />
      </root>
    </mxGraphModel>
  </diagram>
</mxfile>
